<svg xmlns="http://www.w3.org/2000/svg" xmlns:xlink="http://www.w3.org/1999/xlink" viewBox="0 0 33.93 33.93"><defs><style>.cls-1{fill:url(#linear-gradient);}.cls-2{fill:#fff;}</style><linearGradient id="linear-gradient" x1="25.19" y1="2.12" x2="8.74" y2="31.8" gradientUnits="userSpaceOnUse"><stop offset="0" stop-color="#49479d"/><stop offset="0.19" stop-color="#78469c"/><stop offset="0.3" stop-color="#92469c"/><stop offset="0.35" stop-color="#944495"/><stop offset="0.42" stop-color="#9b3e84"/><stop offset="0.51" stop-color="#a73567"/><stop offset="0.6" stop-color="#b82940"/><stop offset="0.6" stop-color="#b8293f"/><stop offset="0.88" stop-color="#e3a137"/><stop offset="1" stop-color="#f0db40"/></linearGradient></defs><title>ig</title><g id="Capa_2" data-name="Capa 2"><g id="Capa_1-2" data-name="Capa 1"><circle class="cls-1" cx="16.96" cy="16.96" r="16.96"/><path class="cls-2" d="M17,12.18A4.79,4.79,0,1,0,21.83,17,4.78,4.78,0,0,0,17,12.18ZM17,20A3.07,3.07,0,1,1,20.11,17,3.06,3.06,0,0,1,17,20Z"/><path class="cls-2" d="M20.84,26.68H13.08a5.84,5.84,0,0,1-5.84-5.83V13.08a5.85,5.85,0,0,1,5.84-5.84h7.76a5.85,5.85,0,0,1,5.84,5.84v7.77A5.84,5.84,0,0,1,20.84,26.68ZM13.08,9.07a4,4,0,0,0-4,4v7.77a4,4,0,0,0,4,4h7.76a4,4,0,0,0,4-4V13.08a4,4,0,0,0-4-4Z"/></g></g></svg>