<svg xmlns="http://www.w3.org/2000/svg" viewBox="0 0 33.93 33.93"><defs><style>.cls-1{fill:#64a6dd;}.cls-2{fill:#fff;}</style></defs><title>tw</title><g id="Capa_2" data-name="Capa 2"><g id="Capa_1-2" data-name="Capa 1"><circle class="cls-1" cx="16.96" cy="16.96" r="16.96"/><polygon class="cls-1" points="26.58 10.95 26.58 10.95 26.58 10.95 26.58 10.95"/><path class="cls-2" d="M25.87,12.8a2.38,2.38,0,0,1-.71.09v-.07a5.84,5.84,0,0,0,1.42-1.62c.05-.18,0-.25,0-.25l-1.19.5-1,.45h0a3.93,3.93,0,0,0-2.88-1.19A3.52,3.52,0,0,0,17.79,14a5,5,0,0,0,.15,1.23c0,.1,0-.09,0,0a11.63,11.63,0,0,1-4.54-1.34c-3-1.52-3.18-2.57-3.18-2.57A4.08,4.08,0,0,0,10,14.74a4.31,4.31,0,0,0,1.35,1.57h0a3.08,3.08,0,0,1-1-.16,2.33,2.33,0,0,1-.68-.33c-.29.71.3,2,1.31,2.89a5.23,5.23,0,0,0,1.66.87L11,19.63c-.09,1.63,3.43,2.6,3.43,2.6h0a5.71,5.71,0,0,1-3.51,1.28A6.75,6.75,0,0,1,9,23.23a9.14,9.14,0,0,0,6.25,2.24c6.29-.33,9.84-5.74,10-11h0a4.64,4.64,0,0,0,.92-.78,6.44,6.44,0,0,0,1-1.37S26.26,12.69,25.87,12.8Z"/><path class="cls-1" d="M26.58,11Z"/></g></g></svg>