<svg xmlns="http://www.w3.org/2000/svg" viewBox="0 0 33.93 33.93"><defs><style>.cls-1{fill:#a62b20;}.cls-2{fill:#fff;}</style></defs><title>yt</title><g id="Capa_2" data-name="Capa 2"><g id="Capa_1-2" data-name="Capa 1"><circle class="cls-1" cx="16.96" cy="16.96" r="16.96"/><path class="cls-2" d="M26.15,14.56a4,4,0,0,0-4-4H11.81a4,4,0,0,0-4,4v4.8a4,4,0,0,0,4,4H22.12a4,4,0,0,0,4-4Zm-6.06,2.76-4.63,2.29c-.18.1-.79,0-.79-.24V14.68c0-.21.62-.34.8-.24l4.43,2.41C20.08,17,20.28,17.22,20.09,17.32Z"/></g></g></svg>